<svg width="112" height="36" viewBox="0 0 112 36" fill="none" xmlns="http://www.w3.org/2000/svg">
<path d="M15.6942 7.15909L21.8608 7.15909L27.75 18.375L21.8608 29.5909L15.6942 29.5909L21.5833 18.375L15.6942 7.15909ZM7.70413e-07 18.375L9.24999 0.75L18.5 18.375L10.9304 32.7954L111.375 32.7954L111.375 36L9.25 36L7.70413e-07 18.375Z" fill="white"/>
<path d="M45.304 19.112C45.304 19.48 45.28 19.832 45.232 20.168H36.664C36.744 21.336 37.232 21.92 38.128 21.92C38.704 21.92 39.12 21.656 39.376 21.128H45.016C44.824 22.088 44.416 22.952 43.792 23.72C43.184 24.472 42.408 25.072 41.464 25.52C40.536 25.952 39.512 26.168 38.392 26.168C37.048 26.168 35.848 25.888 34.792 25.328C33.752 24.768 32.936 23.968 32.344 22.928C31.768 21.872 31.48 20.64 31.48 19.232C31.48 17.824 31.768 16.6 32.344 15.56C32.936 14.504 33.752 13.696 34.792 13.136C35.848 12.576 37.048 12.296 38.392 12.296C39.736 12.296 40.928 12.576 41.968 13.136C43.024 13.68 43.84 14.464 44.416 15.488C45.008 16.512 45.304 17.72 45.304 19.112ZM39.904 17.84C39.904 17.392 39.76 17.056 39.472 16.832C39.184 16.592 38.824 16.472 38.392 16.472C37.448 16.472 36.896 16.928 36.736 17.84H39.904ZM60.333 9.00801V13.232H55.821V26H50.4931V13.232H46.0291V9.00801H60.333ZM74.8821 19.112C74.8821 19.48 74.8581 19.832 74.8101 20.168H66.2421C66.3221 21.336 66.8101 21.92 67.7061 21.92C68.2821 21.92 68.6981 21.656 68.9541 21.128H74.5941C74.4021 22.088 73.9941 22.952 73.3701 23.72C72.7621 24.472 71.9861 25.072 71.0421 25.52C70.1141 25.952 69.0901 26.168 67.9701 26.168C66.6261 26.168 65.4261 25.888 64.3701 25.328C63.3301 24.768 62.5141 23.968 61.9221 22.928C61.3461 21.872 61.0581 20.64 61.0581 19.232C61.0581 17.824 61.3461 16.6 61.9221 15.56C62.5141 14.504 63.3301 13.696 64.3701 13.136C65.4261 12.576 66.6261 12.296 67.9701 12.296C69.3141 12.296 70.5061 12.576 71.5461 13.136C72.6021 13.68 73.4181 14.464 73.9941 15.488C74.5861 16.512 74.8821 17.72 74.8821 19.112ZM69.4821 17.84C69.4821 17.392 69.3381 17.056 69.0501 16.832C68.7621 16.592 68.4021 16.472 67.9701 16.472C67.0261 16.472 66.4741 16.928 66.3141 17.84H69.4821ZM75.8472 19.232C75.8472 17.824 76.1352 16.6 76.7112 15.56C77.3032 14.504 78.1192 13.696 79.1592 13.136C80.2152 12.576 81.4152 12.296 82.7592 12.296C84.5192 12.296 85.9992 12.792 87.1992 13.784C88.4152 14.776 89.1832 16.152 89.5032 17.912H83.8632C83.6552 17.208 83.2472 16.856 82.6392 16.856C82.2072 16.856 81.8632 17.056 81.6072 17.456C81.3672 17.856 81.2472 18.448 81.2472 19.232C81.2472 20.016 81.3672 20.608 81.6072 21.008C81.8632 21.408 82.2072 21.608 82.6392 21.608C83.2472 21.608 83.6552 21.256 83.8632 20.552H89.5032C89.1832 22.312 88.4152 23.688 87.1992 24.68C85.9992 25.672 84.5192 26.168 82.7592 26.168C81.4152 26.168 80.2152 25.888 79.1592 25.328C78.1192 24.768 77.3032 23.968 76.7112 22.928C76.1352 21.872 75.8472 20.64 75.8472 19.232ZM100.672 12.368C102.224 12.368 103.432 12.888 104.296 13.928C105.176 14.968 105.616 16.376 105.616 18.152V26H100.312V18.824C100.312 18.184 100.136 17.68 99.7841 17.312C99.4481 16.928 98.9921 16.736 98.4161 16.736C97.8241 16.736 97.3601 16.928 97.0241 17.312C96.6881 17.68 96.5201 18.184 96.5201 18.824V26H91.1922V8.24001H96.5201V14.528C96.9361 13.888 97.4881 13.368 98.1761 12.968C98.8801 12.568 99.7121 12.368 100.672 12.368Z" fill="white"/>
</svg>
