<svg width="100" height="25" viewBox="0 0 100 25" fill="none" xmlns="http://www.w3.org/2000/svg">
<path d="M19.072 14.816C19.072 15.3067 19.04 15.776 18.976 16.224H7.552C7.65867 17.7813 8.30933 18.56 9.504 18.56C10.272 18.56 10.8267 18.208 11.168 17.504H18.688C18.432 18.784 17.888 19.936 17.056 20.96C16.2453 21.9627 15.2107 22.7627 13.952 23.36C12.7147 23.936 11.3493 24.224 9.856 24.224C8.064 24.224 6.464 23.8507 5.056 23.104C3.66933 22.3573 2.58133 21.2907 1.792 19.904C1.024 18.496 0.64 16.8533 0.64 14.976C0.64 13.0987 1.024 11.4667 1.792 10.08C2.58133 8.672 3.66933 7.59467 5.056 6.848C6.464 6.10133 8.064 5.728 9.856 5.728C11.648 5.728 13.2373 6.10133 14.624 6.848C16.032 7.57333 17.12 8.61867 17.888 9.984C18.6773 11.3493 19.072 12.96 19.072 14.816ZM11.872 13.12C11.872 12.5227 11.68 12.0747 11.296 11.776C10.912 11.456 10.432 11.296 9.856 11.296C8.59733 11.296 7.86133 11.904 7.648 13.12H11.872ZM39.1108 1.344V6.976H33.0948V24H25.9908V6.976H20.0388V1.344H39.1108ZM58.5095 14.816C58.5095 15.3067 58.4775 15.776 58.4135 16.224H46.9895C47.0962 17.7813 47.7468 18.56 48.9415 18.56C49.7095 18.56 50.2642 18.208 50.6055 17.504H58.1255C57.8695 18.784 57.3255 19.936 56.4935 20.96C55.6828 21.9627 54.6482 22.7627 53.3895 23.36C52.1522 23.936 50.7868 24.224 49.2935 24.224C47.5015 24.224 45.9015 23.8507 44.4935 23.104C43.1068 22.3573 42.0188 21.2907 41.2295 19.904C40.4615 18.496 40.0775 16.8533 40.0775 14.976C40.0775 13.0987 40.4615 11.4667 41.2295 10.08C42.0188 8.672 43.1068 7.59467 44.4935 6.848C45.9015 6.10133 47.5015 5.728 49.2935 5.728C51.0855 5.728 52.6748 6.10133 54.0615 6.848C55.4695 7.57333 56.5575 8.61867 57.3255 9.984C58.1148 11.3493 58.5095 12.96 58.5095 14.816ZM51.3095 13.12C51.3095 12.5227 51.1175 12.0747 50.7335 11.776C50.3495 11.456 49.8695 11.296 49.2935 11.296C48.0348 11.296 47.2988 11.904 47.0855 13.12H51.3095ZM59.7963 14.976C59.7963 13.0987 60.1803 11.4667 60.9483 10.08C61.7376 8.672 62.8256 7.59467 64.2123 6.848C65.6203 6.10133 67.2203 5.728 69.0123 5.728C71.3589 5.728 73.3323 6.38933 74.9323 7.712C76.5536 9.03467 77.5776 10.8693 78.0043 13.216H70.4843C70.2069 12.2773 69.6629 11.808 68.8523 11.808C68.2763 11.808 67.8176 12.0747 67.4763 12.608C67.1563 13.1413 66.9963 13.9307 66.9963 14.976C66.9963 16.0213 67.1563 16.8107 67.4763 17.344C67.8176 17.8773 68.2763 18.144 68.8523 18.144C69.6629 18.144 70.2069 17.6747 70.4843 16.736H78.0043C77.5776 19.0827 76.5536 20.9173 74.9323 22.24C73.3323 23.5627 71.3589 24.224 69.0123 24.224C67.2203 24.224 65.6203 23.8507 64.2123 23.104C62.8256 22.3573 61.7376 21.2907 60.9483 19.904C60.1803 18.496 59.7963 16.8533 59.7963 14.976ZM92.8963 5.824C94.9656 5.824 96.5763 6.51733 97.7283 7.904C98.9016 9.29067 99.4883 11.168 99.4883 13.536V24H92.4163V14.432C92.4163 13.5787 92.1816 12.9067 91.7123 12.416C91.2643 11.904 90.6563 11.648 89.8883 11.648C89.0989 11.648 88.4803 11.904 88.0323 12.416C87.5843 12.9067 87.3603 13.5787 87.3603 14.432V24H80.2563V0.32H87.3603V8.704C87.9149 7.85067 88.6509 7.15733 89.5683 6.624C90.5069 6.09067 91.6163 5.824 92.8963 5.824Z" fill="white"/>
</svg>
